PathFileType  4	(X/Y/Z) C:\Users\antoi\Documents\MyRepositories\mobilecap\ResultsAnalysis
DataRate	CameraRate	NumFrames	NumMarkers	Units	OrigDataRate	OrigDataStartFrame	OrigNumFrames
100.0	100.0	7	51	mm	100.0	86	136
Frame#	Time	r_knee			r_shank_antsup			r_ankle			r_calc			r_5meta			r_toe			L_knee			L_shank_antsup			L_ankle			L_calc			L_5meta			L_toe			r_sh2			r_sh3			r_sh4			L_sh2			L_sh3			r_thigh1			r_thigh2			r_thigh3			r_thigh4			r_thigh5			L_thigh1			L_thigh2			L_thigh3			L_thigh4			r.ASIS			r.PSIS			L.ASIS			L.PSIS			C7			R_Shoulder			L_Shoulder			R_Sternum			L_Sternum			R_humerus			R_elbow_med			R_elbow_lat			R_forearm			R_wrist_radius			R_wrist_ulna			L_humerus			L_elbow_med			L_elbow_lat			L_forearm			L_wrist_radius			L_wrist_ulna			R_HJC			L_HJC			R_HJC_reg			L_HJC_reg			
		X1	Y1	Z1	X2	Y2	Z2	X3	Y3	Z3	X4	Y4	Z4	X5	Y5	Z5	X6	Y6	Z6	X7	Y7	Z7	X8	Y8	Z8	X9	Y9	Z9	X10	Y10	Z10	X11	Y11	Z11	X12	Y12	Z12	X13	Y13	Z13	X14	Y14	Z14	X15	Y15	Z15	X16	Y16	Z16	X17	Y17	Z17	X18	Y18	Z18	X19	Y19	Z19	X20	Y20	Z20	X21	Y21	Z21	X22	Y22	Z22	X23	Y23	Z23	X24	Y24	Z24	X25	Y25	Z25	X26	Y26	Z26	X27	Y27	Z27	X28	Y28	Z28	X29	Y29	Z29	X30	Y30	Z30	X31	Y31	Z31	X32	Y32	Z32	X33	Y33	Z33	X34	Y34	Z34	X35	Y35	Z35	X36	Y36	Z36	X37	Y37	Z37	X38	Y38	Z38	X39	Y39	Z39	X40	Y40	Z40	X41	Y41	Z41	X42	Y42	Z42	X43	Y43	Z43	X44	Y44	Z44	X45	Y45	Z45	X46	Y46	Z46	X47	Y47	Z47	X48	Y48	Z48	X49	Y49	Z49	X50	Y50	Z50	X51	Y51	Z51	

86	0.85000000	1055.47351	565.93163	-125.04295	1009.74453	447.33474	-147.62709	712.15067	291.41225	-192.70466	658.43682	326.23175	-252.01348	719.88153	135.70633	-153.02145	774.09890	123.89104	-213.50330	919.96202	539.19965	-468.18622	957.93683	431.19662	-442.71743	847.25628	96.28772	-420.28990	780.70580	70.41254	-372.31137	987.76963	34.19508	-440.75158	1016.71681	56.64066	-370.51831	933.67933	369.34702	-177.19341	955.92031	485.24343	-108.00059	877.69916	400.24423	-122.32879	878.10008	431.14554	-487.68817	895.33137	311.94737	-490.85414	1071.33119	814.72568	-143.49760	1113.08017	711.14428	-150.68680	1088.06139	672.96867	-100.81218	984.35867	774.63004	-82.65855	1031.50501	667.74421	-95.31089	981.60838	796.92917	-498.48323	1000.39693	661.39558	-480.43733	875.30644	776.45278	-524.60881	892.52659	640.81792	-498.03692	959.94989	1047.93793	-175.19759	755.18503	1070.11076	-259.31457	963.80861	1053.64538	-439.42644	753.33108	1076.59678	-356.14300	815.47096	1574.08291	-325.60479	885.64949	1512.07944	-135.54243	894.66345	1516.86000	-499.31569	956.92290	1500.21652	-295.35388	956.05430	1495.24206	-342.65793	893.08201	1343.06043	-61.43973	821.19978	1121.09190	-105.85148	835.74718	1145.07340	-27.04039	940.21700	1004.95990	-12.25339	980.37763	889.27436	-0.69858	948.24698	878.45098	25.96529	916.19037	1343.57569	-570.99403	848.04812	1127.49776	-532.12968	886.47423	1143.65149	-601.83902	994.80667	1019.71642	-570.06860	1039.53690	910.28948	-586.09979	1011.13636	901.55806	-623.76364	883.85661	963.82511	-212.71990	888.42184	959.41712	-426.00494	896.56599	959.53204	-217.41335	893.23472	971.19276	-391.46017	
87	0.86000000	1077.51250	571.25257	-125.93837	1035.63391	450.51410	-149.15488	743.35010	284.49007	-194.37537	688.00020	317.15024	-253.62935	758.01043	129.41112	-155.14117	812.55215	120.07088	-215.64730	923.35072	539.67892	-468.30574	960.35795	431.37252	-442.95455	847.64024	96.92964	-419.94578	781.07497	70.73287	-372.05432	987.81069	34.23462	-440.65667	1016.94830	56.56518	-370.45605	962.07655	370.11698	-179.18981	980.42617	486.04695	-108.76194	905.41310	398.32237	-123.63166	880.33618	431.79125	-487.68817	896.73146	312.50213	-490.86066	1087.25273	820.56764	-144.90085	1131.67894	718.42852	-152.06214	1107.96420	679.63734	-101.81572	1001.97394	778.75388	-82.94114	1051.89362	672.91225	-95.73361	989.66817	796.60813	-498.35957	1006.31602	660.92977	-480.25488	883.02452	777.80943	-524.78947	898.37161	641.74724	-498.23763	971.62352	1049.61739	-176.50898	766.88500	1071.42244	-259.58917	974.67671	1054.13941	-440.43267	765.04403	1077.68293	-356.48676	827.69199	1575.18245	-326.31019	896.81416	1513.37663	-135.85207	907.87562	1518.41624	-499.44328	968.93669	1501.40828	-295.28087	968.30515	1496.39477	-342.54886	902.69577	1344.42031	-61.26845	830.48450	1122.63671	-106.25221	844.17682	1146.70033	-27.33259	947.77073	1006.08324	-11.16155	987.21732	890.20828	0.97207	954.75884	879.62560	27.33087	932.08995	1346.02198	-571.03587	867.78465	1128.52128	-533.04920	906.69299	1145.58289	-602.12147	1017.47232	1024.18715	-568.64636	1065.03439	915.96523	-583.85354	1037.25370	906.49694	-622.01044	895.61222	965.33437	-213.14563	899.39673	960.05185	-426.43003	907.97088	960.90242	-218.47743	904.66866	972.13588	-392.32550	
88	0.87000000	1098.65972	576.33029	-126.88203	1061.07853	453.53928	-150.55751	774.99244	276.55888	-196.07865	718.07050	306.62335	-255.39597	797.07031	122.50522	-156.98637	851.95361	115.79837	-217.46681	926.68925	540.17283	-468.41831	962.70731	431.60591	-443.17473	847.99800	97.64835	-419.62556	781.52178	71.14271	-371.79194	987.85092	34.27595	-440.55684	1017.17545	56.48556	-370.40221	990.31832	370.53019	-181.04307	1004.20696	486.48864	-109.63816	932.88086	395.91409	-124.94299	882.49652	432.48160	-487.64830	898.06546	313.10796	-490.84334	1102.84373	826.03448	-146.46887	1149.74924	725.27850	-153.54796	1127.28065	686.00199	-102.88220	1019.30481	782.73212	-83.27621	1071.81878	677.77935	-96.13603	997.66631	796.23487	-498.17524	1012.09615	660.45645	-480.02463	890.67387	779.12780	-524.93127	904.17700	642.62829	-498.43981	983.16864	1050.98002	-177.71523	778.51319	1072.50394	-259.82114	985.56389	1054.46226	-441.37514	776.72592	1078.55269	-356.76316	839.94429	1576.11094	-326.92140	908.10925	1514.41111	-136.12528	921.06444	1519.79789	-499.50327	981.01858	1502.35119	-295.17801	980.57327	1497.32520	-342.41621	912.44586	1345.54704	-61.07037	839.81205	1123.91869	-106.47259	852.73711	1148.11788	-27.49219	955.41088	1007.03582	-9.93004	994.17709	890.98688	2.78332	961.38617	880.62780	28.80019	947.80100	1348.33759	-571.07825	887.35578	1129.52830	-533.83951	926.64689	1147.52709	-602.34840	1039.90547	1028.74272	-567.24933	1090.34131	921.69603	-581.59776	1063.12171	911.56525	-620.18852	907.27347	966.55929	-213.54549	910.35403	960.51294	-426.82576	919.25283	962.02162	-219.48220	916.05089	972.85866	-393.16201	
89	0.88000000	1118.87546	581.09673	-127.87590	1085.94344	456.46376	-151.75107	807.11628	267.65975	-197.78214	748.72541	294.72331	-257.24605	837.07032	115.07200	-158.52522	892.33840	111.21066	-218.91184	929.99884	540.68882	-468.53438	964.98360	431.89736	-443.37743	848.35220	98.43908	-419.33691	782.01985	71.68294	-371.53717	987.89318	34.30941	-440.46030	1017.38503	56.39335	-370.36844	1018.34526	370.62359	-182.65259	1027.21341	486.63947	-110.65493	960.01675	393.12243	-126.24679	884.60169	433.22193	-487.58370	899.35729	313.77421	-490.81386	1118.09476	831.06608	-148.12661	1167.16920	731.56586	-155.12451	1145.96940	691.94493	-103.99141	1036.28626	786.49279	-83.67537	1091.21014	682.28300	-96.50402	1005.61997	795.81681	-497.93968	1017.76483	659.98207	-479.75485	898.26665	780.41300	-525.02132	909.92227	643.48907	-498.62440	994.69245	1052.07752	-178.77644	790.06896	1073.36164	-260.00244	996.56787	1054.66898	-442.25588	788.38818	1079.20262	-356.97380	852.23106	1576.87632	-327.43151	919.51981	1515.15959	-136.35848	934.22783	1520.99218	-499.49393	993.16116	1503.03477	-295.04046	992.85727	1498.02991	-342.25809	922.34846	1346.41054	-60.85428	849.20600	1124.92582	-106.51828	861.46223	1149.30482	-27.51000	963.18411	1007.77735	-8.58065	1001.27317	891.55892	4.71194	968.14974	881.41167	30.36119	963.37036	1350.49182	-571.10527	906.70569	1130.50049	-534.52014	946.31539	1149.44843	-602.55638	1062.07444	1033.33667	-565.87168	1115.39806	927.43991	-579.32132	1088.71249	916.70634	-618.29287	918.92013	967.53648	-213.90624	921.38176	960.83501	-427.17828	930.49941	962.92582	-220.39443	927.49047	973.38021	-393.96648	
90	0.89000000	1138.13141	585.47427	-128.92402	1110.09210	459.28324	-152.68458	839.77012	257.83912	-199.45214	780.06894	281.55343	-259.13152	877.96374	107.22167	-159.73117	933.65157	106.41773	-219.93417	933.30698	541.23708	-468.65624	967.18717	432.24965	-443.56650	848.72389	99.29142	-419.08288	782.52521	72.38644	-371.30440	987.94036	34.32747	-440.37417	1017.57940	56.28470	-370.36075	1046.11973	370.40654	-183.95140	1049.42227	486.50351	-111.81881	986.76653	389.98796	-127.52567	886.66348	434.02038	-487.50846	900.62537	314.51201	-490.78236	1132.97698	835.58885	-149.80736	1183.85549	737.18053	-156.77064	1163.98112	697.34632	-105.13712	1052.83551	789.95057	-84.13938	1109.95392	686.36381	-96.86685	1013.53247	795.35815	-497.66646	1023.34551	659.50543	-479.45744	905.81098	781.67045	-525.04911	915.57492	644.37480	-498.75952	1006.32069	1052.97821	-179.66609	801.56350	1074.00617	-260.12442	1007.73777	1054.78331	-443.05404	800.04803	1079.63689	-357.11755	864.55884	1577.48632	-327.83208	931.03388	1515.61590	-136.54193	947.36921	1521.99156	-499.41348	1005.34754	1503.45789	-294.86341	1005.15798	1498.51272	-342.06904	932.42130	1346.99275	-60.62726	858.68923	1125.66854	-106.40452	870.38109	1150.24929	-27.38638	971.13062	1008.27575	-7.14170	1008.51806	891.88357	6.72364	975.07144	881.94621	31.99919	978.83909	1352.46556	-571.09781	925.80232	1131.41840	-535.11593	965.69119	1151.31059	-602.76789	1083.94868	1037.92661	-564.50277	1140.14575	933.18802	-577.02025	1113.98351	921.87673	-616.32198	930.63202	968.31546	-214.19799	932.54397	961.03010	-427.45754	941.80101	963.64785	-221.18776	939.08894	973.72065	-394.71637	
91	0.90000000	1156.40746	589.37170	-130.03157	1133.41269	461.92161	-153.35471	873.00230	247.16332	-201.05837	812.20995	267.23912	-261.02686	919.66982	99.09207	-160.57136	975.76308	101.50445	-220.49012	936.64120	541.82847	-468.77582	969.32270	432.66608	-443.74782	849.12813	100.19187	-418.86316	782.99036	73.26968	-371.10437	987.99341	34.32622	-440.30272	1017.77753	56.16194	-370.37870	1073.62404	369.86479	-184.91201	1070.82621	486.01756	-113.12072	1013.11158	386.49442	-128.76596	888.68835	434.88483	-487.43307	901.88071	315.33069	-490.75483	1147.45613	839.52311	-151.46266	1199.78190	742.03650	-158.45989	1181.25125	702.09029	-106.32698	1068.86905	793.01429	-84.66155	1127.90302	689.96453	-97.29706	1021.39189	794.85601	-497.37966	1028.85414	659.01685	-479.15330	913.30903	782.90148	-525.00710	921.09803	645.33542	-498.80496	1018.13578	1053.73455	-180.37780	813.02487	1074.44574	-260.18475	1019.10004	1054.81516	-443.75236	811.72930	1079.86682	-357.19301	876.93756	1577.94424	-328.11327	942.64808	1515.78744	-136.66213	960.49658	1522.79298	-499.26067	1017.55852	1503.62838	-294.64273	1017.47873	1498.78252	-341.84217	942.68610	1347.28665	-60.39197	868.28235	1126.16433	-106.14970	879.51922	1150.94618	-27.13035	979.27738	1008.50740	-5.64464	1015.91952	891.93338	8.77968	982.17144	882.21548	33.69776	994.23517	1354.25002	-571.03430	944.63702	1132.26196	-535.65740	984.78226	1153.08056	-602.98464	1105.50209	1042.47753	-563.12896	1164.53606	938.95837	-574.69770	1138.89250	927.04716	-614.27684	942.46714	968.93385	-214.40053	943.88396	961.10395	-427.64424	953.23080	964.20474	-221.85531	950.91252	973.90129	-395.39582	
92	0.91000000	1173.68856	592.68645	-131.20445	1155.83579	464.24514	-153.80493	906.85304	235.72436	-202.57576	845.24919	251.91906	-262.92233	962.09249	90.84251	-161.00212	1018.50405	96.54631	-220.53974	940.01638	542.47125	-468.87502	971.40231	433.14776	-443.92429	849.57037	101.12681	-418.67465	783.38055	74.32818	-370.94001	988.05024	34.30572	-440.24637	1018.00551	56.03188	-370.41727	1100.85319	368.97060	-185.54383	1091.42970	485.06729	-114.53834	1039.06518	382.58625	-129.95997	890.68476	435.81966	-487.36000	903.12874	316.23416	-490.73111	1161.51058	842.79552	-153.06363	1214.97041	746.06965	-160.16106	1197.70523	706.07145	-107.57680	1084.32066	795.59718	-85.23664	1144.91709	693.02727	-97.88085	1029.17396	794.29760	-497.11583	1034.30036	658.50001	-478.87284	920.75404	784.10035	-524.89537	926.46299	646.40595	-498.72476	1030.14220	1054.36126	-180.92506	824.50032	1074.68208	-260.19243	1030.67615	1054.77468	-444.36076	823.45764	1079.91003	-357.20128	889.37468	1578.24741	-328.26639	954.36498	1515.68994	-136.70559	973.61908	1523.39768	-499.03437	1029.78136	1503.56202	-294.37494	1029.82398	1498.85076	-341.57097	953.16711	1347.29489	-60.14557	878.00661	1126.42515	-105.77051	888.89836	1151.39468	-26.75680	987.63773	1008.45858	-4.12076	1023.48368	891.69622	10.84487	989.46474	882.21601	35.43977	1009.56994	1355.84411	-570.89377	963.21009	1133.01506	-536.17656	1003.60876	1154.73348	-603.18850	1126.71382	1046.96314	-561.73588	1188.53447	944.77900	-572.35973	1163.40799	932.20194	-612.15936	954.44922	969.40125	-214.52254	955.42584	961.06822	-427.74908	964.83704	964.58813	-222.41136	962.97104	973.94212	-396.01362	
